<svg xmlns="http://www.w3.org/2000/svg" width="1000" height="1000" viewBox="0 0 1000 1000"><line x1="653" y1="293" x2="648" y2="294" stroke="#000000" stroke-width="4" stroke-linecap="round"/><line x1="648" y1="294" x2="644" y2="296" stroke="#000000" stroke-width="4" stroke-linecap="round"/><line x1="644" y1="296" x2="640" y2="299" stroke="#000000" stroke-width="4" stroke-linecap="round"/><line x1="640" y1="299" x2="637" y2="301" stroke="#000000" stroke-width="4" stroke-linecap="round"/><line x1="637" y1="301" x2="636" y2="304" stroke="#000000" stroke-width="4" stroke-linecap="round"/><line x1="636" y1="304" x2="634" y2="308" stroke="#000000" stroke-width="4" stroke-linecap="round"/><line x1="634" y1="308" x2="634" y2="312" stroke="#000000" stroke-width="4" stroke-linecap="round"/><line x1="634" y1="312" x2="634" y2="316" stroke="#000000" stroke-width="4" stroke-linecap="round"/><line x1="634" y1="316" x2="637" y2="320" stroke="#000000" stroke-width="4" stroke-linecap="round"/><line x1="637" y1="320" x2="640" y2="322" stroke="#000000" stroke-width="4" stroke-linecap="round"/><line x1="640" y1="322" x2="644" y2="322" stroke="#000000" stroke-width="4" stroke-linecap="round"/><line x1="644" y1="322" x2="649" y2="321" stroke="#000000" stroke-width="4" stroke-linecap="round"/><line x1="649" y1="321" x2="655" y2="317" stroke="#000000" stroke-width="4" stroke-linecap="round"/><line x1="655" y1="317" x2="658" y2="311" stroke="#000000" stroke-width="4" stroke-linecap="round"/><line x1="658" y1="311" x2="660" y2="302" stroke="#000000" stroke-width="4" stroke-linecap="round"/><line x1="660" y1="302" x2="661" y2="290" stroke="#000000" stroke-width="4" stroke-linecap="round"/><line x1="661" y1="290" x2="661" y2="277" stroke="#000000" stroke-width="4" stroke-linecap="round"/><line x1="661" y1="277" x2="661" y2="266" stroke="#000000" stroke-width="4" stroke-linecap="round"/><line x1="661" y1="266" x2="660" y2="257" stroke="#000000" stroke-width="4" stroke-linecap="round"/><line x1="660" y1="257" x2="658" y2="250" stroke="#000000" stroke-width="4" stroke-linecap="round"/><line x1="658" y1="250" x2="654" y2="243" stroke="#000000" stroke-width="4" stroke-linecap="round"/><line x1="654" y1="243" x2="652" y2="237" stroke="#000000" stroke-width="4" stroke-linecap="round"/><line x1="652" y1="237" x2="652" y2="234" stroke="#000000" stroke-width="4" stroke-linecap="round"/><line x1="652" y1="234" x2="652" y2="233" stroke="#000000" stroke-width="4" stroke-linecap="round"/><line x1="652" y1="233" x2="653" y2="231" stroke="#000000" stroke-width="4" stroke-linecap="round"/><line x1="653" y1="231" x2="655" y2="230" stroke="#000000" stroke-width="4" stroke-linecap="round"/><line x1="655" y1="230" x2="657" y2="230" stroke="#000000" stroke-width="4" stroke-linecap="round"/><line x1="657" y1="230" x2="661" y2="230" stroke="#000000" stroke-width="4" stroke-linecap="round"/><line x1="661" y1="230" x2="665" y2="230" stroke="#000000" stroke-width="4" stroke-linecap="round"/><line x1="665" y1="230" x2="670" y2="230" stroke="#000000" stroke-width="4" stroke-linecap="round"/><line x1="670" y1="230" x2="675" y2="232" stroke="#000000" stroke-width="4" stroke-linecap="round"/><line x1="675" y1="232" x2="680" y2="234" stroke="#000000" stroke-width="4" stroke-linecap="round"/><line x1="604" y1="261" x2="604" y2="261" stroke="#000000" stroke-width="4" stroke-linecap="round"/><line x1="604" y1="261" x2="604" y2="261" stroke="#000000" stroke-width="4" stroke-linecap="round"/><line x1="604" y1="261" x2="604" y2="261" stroke="#000000" stroke-width="4" stroke-linecap="round"/><line x1="604" y1="261" x2="604" y2="261" stroke="#000000" stroke-width="4" stroke-linecap="round"/><line x1="604" y1="261" x2="604" y2="263" stroke="#000000" stroke-width="4" stroke-linecap="round"/><line x1="604" y1="263" x2="604" y2="267" stroke="#000000" stroke-width="4" stroke-linecap="round"/><line x1="604" y1="267" x2="604" y2="271" stroke="#000000" stroke-width="4" stroke-linecap="round"/><line x1="604" y1="271" x2="604" y2="276" stroke="#000000" stroke-width="4" stroke-linecap="round"/><line x1="604" y1="276" x2="604" y2="281" stroke="#000000" stroke-width="4" stroke-linecap="round"/><line x1="604" y1="281" x2="604" y2="287" stroke="#000000" stroke-width="4" stroke-linecap="round"/><line x1="604" y1="287" x2="602" y2="291" stroke="#000000" stroke-width="4" stroke-linecap="round"/><line x1="571" y1="270" x2="564" y2="269" stroke="#000000" stroke-width="4" stroke-linecap="round"/><line x1="564" y1="269" x2="555" y2="268" stroke="#000000" stroke-width="4" stroke-linecap="round"/><line x1="555" y1="268" x2="548" y2="269" stroke="#000000" stroke-width="4" stroke-linecap="round"/><line x1="548" y1="269" x2="540" y2="272" stroke="#000000" stroke-width="4" stroke-linecap="round"/><line x1="540" y1="272" x2="536" y2="276" stroke="#000000" stroke-width="4" stroke-linecap="round"/><line x1="536" y1="276" x2="533" y2="280" stroke="#000000" stroke-width="4" stroke-linecap="round"/><line x1="533" y1="280" x2="529" y2="286" stroke="#000000" stroke-width="4" stroke-linecap="round"/><line x1="529" y1="286" x2="526" y2="293" stroke="#000000" stroke-width="4" stroke-linecap="round"/><line x1="526" y1="293" x2="524" y2="300" stroke="#000000" stroke-width="4" stroke-linecap="round"/><line x1="524" y1="300" x2="523" y2="307" stroke="#000000" stroke-width="4" stroke-linecap="round"/><line x1="523" y1="307" x2="523" y2="313" stroke="#000000" stroke-width="4" stroke-linecap="round"/><line x1="523" y1="313" x2="525" y2="317" stroke="#000000" stroke-width="4" stroke-linecap="round"/><line x1="525" y1="317" x2="529" y2="319" stroke="#000000" stroke-width="4" stroke-linecap="round"/><line x1="529" y1="319" x2="535" y2="319" stroke="#000000" stroke-width="4" stroke-linecap="round"/><line x1="535" y1="319" x2="542" y2="318" stroke="#000000" stroke-width="4" stroke-linecap="round"/><line x1="542" y1="318" x2="550" y2="315" stroke="#000000" stroke-width="4" stroke-linecap="round"/><line x1="550" y1="315" x2="557" y2="312" stroke="#000000" stroke-width="4" stroke-linecap="round"/><line x1="557" y1="312" x2="562" y2="308" stroke="#000000" stroke-width="4" stroke-linecap="round"/><line x1="529" y1="257" x2="529" y2="257" stroke="#000000" stroke-width="4" stroke-linecap="round"/><line x1="529" y1="257" x2="528" y2="258" stroke="#000000" stroke-width="4" stroke-linecap="round"/><line x1="528" y1="258" x2="526" y2="262" stroke="#000000" stroke-width="4" stroke-linecap="round"/><line x1="526" y1="262" x2="524" y2="269" stroke="#000000" stroke-width="4" stroke-linecap="round"/><line x1="524" y1="269" x2="521" y2="277" stroke="#000000" stroke-width="4" stroke-linecap="round"/><line x1="521" y1="277" x2="517" y2="285" stroke="#000000" stroke-width="4" stroke-linecap="round"/><line x1="517" y1="285" x2="513" y2="293" stroke="#000000" stroke-width="4" stroke-linecap="round"/><line x1="513" y1="293" x2="508" y2="302" stroke="#000000" stroke-width="4" stroke-linecap="round"/><line x1="508" y1="302" x2="503" y2="310" stroke="#000000" stroke-width="4" stroke-linecap="round"/><line x1="503" y1="310" x2="498" y2="316" stroke="#000000" stroke-width="4" stroke-linecap="round"/><line x1="498" y1="316" x2="495" y2="321" stroke="#000000" stroke-width="4" stroke-linecap="round"/><line x1="495" y1="321" x2="493" y2="322" stroke="#000000" stroke-width="4" stroke-linecap="round"/><line x1="488" y1="259" x2="488" y2="259" stroke="#000000" stroke-width="4" stroke-linecap="round"/><line x1="488" y1="259" x2="488" y2="259" stroke="#000000" stroke-width="4" stroke-linecap="round"/><line x1="488" y1="259" x2="485" y2="268" stroke="#000000" stroke-width="4" stroke-linecap="round"/><line x1="485" y1="268" x2="482" y2="278" stroke="#000000" stroke-width="4" stroke-linecap="round"/><line x1="482" y1="278" x2="478" y2="286" stroke="#000000" stroke-width="4" stroke-linecap="round"/><line x1="478" y1="286" x2="474" y2="296" stroke="#000000" stroke-width="4" stroke-linecap="round"/><line x1="474" y1="296" x2="469" y2="304" stroke="#000000" stroke-width="4" stroke-linecap="round"/><line x1="469" y1="304" x2="464" y2="313" stroke="#000000" stroke-width="4" stroke-linecap="round"/><line x1="464" y1="313" x2="459" y2="320" stroke="#000000" stroke-width="4" stroke-linecap="round"/><line x1="459" y1="320" x2="456" y2="322" stroke="#000000" stroke-width="4" stroke-linecap="round"/><line x1="374" y1="268" x2="377" y2="266" stroke="#000000" stroke-width="4" stroke-linecap="round"/><line x1="377" y1="266" x2="383" y2="264" stroke="#000000" stroke-width="4" stroke-linecap="round"/><line x1="383" y1="264" x2="392" y2="261" stroke="#000000" stroke-width="4" stroke-linecap="round"/><line x1="392" y1="261" x2="406" y2="258" stroke="#000000" stroke-width="4" stroke-linecap="round"/><line x1="406" y1="258" x2="418" y2="256" stroke="#000000" stroke-width="4" stroke-linecap="round"/><line x1="418" y1="256" x2="422" y2="256" stroke="#000000" stroke-width="4" stroke-linecap="round"/><line x1="422" y1="256" x2="423" y2="256" stroke="#000000" stroke-width="4" stroke-linecap="round"/><line x1="423" y1="256" x2="424" y2="256" stroke="#000000" stroke-width="4" stroke-linecap="round"/><line x1="424" y1="256" x2="424" y2="264" stroke="#000000" stroke-width="4" stroke-linecap="round"/><line x1="424" y1="264" x2="424" y2="274" stroke="#000000" stroke-width="4" stroke-linecap="round"/><line x1="424" y1="274" x2="423" y2="286" stroke="#000000" stroke-width="4" stroke-linecap="round"/><line x1="423" y1="286" x2="420" y2="295" stroke="#000000" stroke-width="4" stroke-linecap="round"/><line x1="420" y1="295" x2="417" y2="304" stroke="#000000" stroke-width="4" stroke-linecap="round"/><line x1="417" y1="304" x2="414" y2="312" stroke="#000000" stroke-width="4" stroke-linecap="round"/><line x1="414" y1="312" x2="410" y2="318" stroke="#000000" stroke-width="4" stroke-linecap="round"/><line x1="410" y1="318" x2="410" y2="320" stroke="#000000" stroke-width="4" stroke-linecap="round"/></svg>