<svg width="94" height="94" viewBox="0 0 94 94" fill="none" xmlns="http://www.w3.org/2000/svg">
<g clip-path="url(#clip0_1614_4929)">
<mask id="mask0_1614_4929" style="mask-type:luminance" maskUnits="userSpaceOnUse" x="0" y="0" width="94" height="94">
<path d="M46.6715 0.000875115L0.00244141 46.6699L46.6715 93.339L93.3405 46.6699L46.6715 0.000875115Z" fill="white"/>
</mask>
<g mask="url(#mask0_1614_4929)">
<path d="M91.13 48.8702C89.46 49.9102 87.66 50.6502 85.77 51.2102C83.51 51.8802 81.2 51.7302 78.9 51.7302C74.5 51.7402 70.11 51.7302 65.71 51.7302C65.27 51.7302 65.02 51.8702 64.8 52.2602C60.83 59.2202 56.84 66.1702 52.86 73.1202C51.07 76.2402 49.29 79.3602 47.49 82.4802C46.56 84.0802 45.15 84.9102 43.29 84.9302C41.97 84.9402 40.66 84.9302 39.34 84.9302C37.67 84.9302 36.91 83.9202 37.38 82.3002C39.07 76.4202 40.77 70.5402 42.47 64.6702C43.12 62.4102 43.78 60.1602 44.41 57.9002C44.52 57.4902 44.53 57.0502 44.54 56.6202C44.56 55.0302 44.56 53.4402 44.57 51.7002C43.01 51.7202 41.53 51.7602 40.05 51.7602C36.69 51.7602 33.32 51.8402 29.96 51.7302C28.45 51.6802 26.94 51.2902 25.45 51.0002C25.01 50.9102 24.78 50.9002 24.54 51.3602C23.44 53.4802 22.28 55.5702 21.17 57.6902C20.37 59.2102 19.14 60.0602 17.44 60.2102C16.86 60.2602 16.28 60.2602 15.7 60.2102C14.27 60.1102 13.37 59.0202 13.36 57.3902C13.35 53.7702 13.35 50.1502 13.36 46.5202C13.36 42.9602 13.38 39.4102 13.39 35.8502C13.39 34.1102 14.41 33.1102 16.16 33.0602C17.81 33.0102 19.38 33.2502 20.49 34.6202C21 35.2502 21.37 36.0002 21.76 36.7102C22.72 38.4702 23.66 40.2402 24.6 42.0002C24.76 42.3002 24.91 42.4902 25.29 42.3502C27.59 41.5402 29.98 41.5102 32.38 41.5302C36.26 41.5602 40.14 41.5402 44.02 41.5402C44.19 41.5402 44.36 41.5202 44.58 41.5002C44.55 38.7102 44.71 35.9802 43.87 33.2402C41.6 25.8302 39.53 18.3502 37.38 10.9002C36.95 9.42017 37.76 8.37017 39.29 8.37017C40.63 8.37017 41.96 8.36017 43.3 8.37017C45.18 8.39017 46.61 9.21017 47.54 10.8502C53.25 20.8302 58.97 30.8102 64.66 40.8002C64.98 41.3502 65.31 41.5602 65.96 41.5502C71.28 41.5102 76.61 41.4902 81.93 41.5202C85.08 41.5402 87.99 42.5102 90.67 44.1502C90.87 44.2702 91.06 44.4202 91.24 44.5702C92.52 45.6702 92.69 46.2802 92.14 47.8302L91.13 48.8402V48.8702Z" fill="black"/>
</g>
</g>
<defs>
<clipPath id="clip0_1614_4929">
<rect width="93.34" height="93.34" fill="white"/>
</clipPath>
</defs>
</svg>
