<svg width="94" height="94" viewBox="0 0 94 94" fill="none" xmlns="http://www.w3.org/2000/svg">
<g clip-path="url(#clip0_1166_3192)">
<path d="M91.4647 49.2031C89.7917 50.2449 87.997 50.9877 86.1053 51.5474C83.8423 52.2169 81.5363 52.0641 79.2357 52.0704C74.8377 52.0831 70.4415 52.0775 66.0435 52.0609C65.5989 52.0591 65.3538 52.1999 65.1297 52.5942C61.16 59.5515 57.1729 66.5006 53.1894 73.4496C51.4012 76.5697 49.6213 79.6944 47.823 82.8081C46.8955 84.4125 45.485 85.2357 43.6263 85.254C42.3109 85.2667 40.9964 85.2548 39.6811 85.2547C38.0144 85.2547 37.2552 84.2448 37.7207 82.6248C39.4137 76.7459 41.1122 70.8688 42.8079 64.9908C43.4591 62.7351 44.1204 60.4822 44.7506 58.2201C44.864 57.8139 44.875 57.3712 44.8814 56.944C44.9024 55.3533 44.9014 53.7608 44.9096 52.0273C43.35 52.0502 41.8681 52.0867 40.3862 52.0903C37.0237 52.0994 33.6584 52.1679 30.2995 52.0598C28.7884 52.0104 27.2827 51.6225 25.7881 51.3261C25.3435 51.2383 25.1176 51.23 24.8807 51.6865C23.7812 53.8086 22.6223 55.8987 21.5101 58.0136C20.7125 59.532 19.4776 60.3808 17.7808 60.5335C17.2036 60.5857 16.6163 60.5838 16.0373 60.5426C14.6094 60.4392 13.7029 59.3479 13.6983 57.7243C13.6863 54.1029 13.688 50.4805 13.6925 46.8591C13.6978 43.3027 13.7124 39.7462 13.7232 36.1897C13.7287 34.4499 14.7385 33.4492 16.4911 33.3962C18.1459 33.3459 19.7082 33.5875 20.8169 34.9578C21.3255 35.5871 21.6951 36.3336 22.0876 37.0498C23.0481 38.8061 23.9885 40.5752 24.9261 42.3434C25.0835 42.6416 25.2335 42.8319 25.6195 42.6965C27.9191 41.8898 30.3065 41.8551 32.7077 41.8726C36.5871 41.901 40.4674 41.8847 44.3467 41.8857C44.515 41.8857 44.6843 41.8629 44.9056 41.8482C44.8726 39.0583 45.0344 36.3297 44.1946 33.5855C41.9259 26.1706 39.8511 18.6972 37.7049 11.2457C37.2795 9.76844 38.0808 8.71836 39.6157 8.71657C40.9521 8.7157 42.2885 8.70567 43.6249 8.72126C45.5065 8.74236 46.9299 9.56383 47.8684 11.2031C53.5803 21.1847 59.2949 31.1637 64.9903 41.1545C65.3068 41.7089 65.6398 41.9138 66.2938 41.9092C71.6176 41.871 76.9422 41.8483 82.2659 41.8814C85.4208 41.9007 88.3215 42.8731 91.0044 44.5133C91.2057 44.6359 91.395 44.7831 91.5743 44.9368C92.8531 46.04 93.0196 46.6492 92.4727 48.1969L91.4665 49.2031L91.4647 49.2031Z" fill="#FFFF22"/>
</g>
<defs>
<clipPath id="clip0_1166_3192">
<rect width="66" height="66" fill="white" transform="translate(47 0.330078) rotate(45)"/>
</clipPath>
</defs>
</svg>
