<svg width="25" height="25" viewBox="0 0 25 25" fill="none" xmlns="http://www.w3.org/2000/svg">
<path d="M3.46484 18.8691V12.8691C3.46484 10.4822 4.41306 8.19301 6.10088 6.50518C7.78871 4.81735 10.0779 3.86914 12.4648 3.86914C14.8518 3.86914 17.141 4.81735 18.8288 6.50518C20.5166 8.19301 21.4648 10.4822 21.4648 12.8691V18.8691" stroke="black" stroke-width="2" stroke-linecap="round" stroke-linejoin="round"/>
<path d="M21.4648 19.8691C21.4648 20.3996 21.2541 20.9083 20.8791 21.2834C20.504 21.6584 19.9953 21.8691 19.4648 21.8691H18.4648C17.9344 21.8691 17.4257 21.6584 17.0506 21.2834C16.6756 20.9083 16.4648 20.3996 16.4648 19.8691V16.8691C16.4648 16.3387 16.6756 15.83 17.0506 15.4549C17.4257 15.0799 17.9344 14.8691 18.4648 14.8691H21.4648V19.8691ZM3.46484 19.8691C3.46484 20.3996 3.67556 20.9083 4.05063 21.2834C4.4257 21.6584 4.93441 21.8691 5.46484 21.8691H6.46484C6.99528 21.8691 7.50398 21.6584 7.87906 21.2834C8.25413 20.9083 8.46484 20.3996 8.46484 19.8691V16.8691C8.46484 16.3387 8.25413 15.83 7.87906 15.4549C7.50398 15.0799 6.99528 14.8691 6.46484 14.8691H3.46484V19.8691Z" stroke="black" stroke-width="2" stroke-linecap="round" stroke-linejoin="round"/>
</svg>
